<svg width="24" height="24" xmlns="http://www.w3.org/2000/svg" role="img">
 <title>.NET icon</title>

 <g>
  <title>Layer 1</title>
  <path fill="#64748b" id="svg_1" d="m3.1672,7.5655l0,8.749l1.0228,0l0,-6.325a8.979,8.979 0 0 0 -0.0488,-1.1998l0.0384,0a2.9082,2.9082 0 0 0 0.2784,0.5473l4.4973,6.9774l1.2569,0l0,-8.7489l-1.0218,0l0,6.1526a9.2574,9.2574 0 0 0 0.0619,1.286l-0.0234,0c-0.0544,-0.1056 -0.173,-0.3002 -0.3553,-0.585l-4.3772,-6.8535l-1.3292,-0.0001zm9.315,0l0,8.749l4.65,0l0.0048,-0.9599l-3.6087,0l0,-3.0331l3.1579,0l0,-0.9215l-3.1579,0l0,-2.9084l3.3884,0l0,-0.926l-4.4345,-0.0001zm5.4374,0l0,0.926l2.5149,0l0,7.823l1.0216,0l0,-7.823l2.5439,0l0,-0.926l-6.0804,0zm-17.2662,7.5015a0.643,0.643 0 0 0 -0.4565,0.2062a0.6719,0.6719 0 0 0 -0.1969,0.4798a0.6623,0.6623 0 0 0 0.1968,0.4799a0.6479,0.6479 0 0 0 0.4799,0.2015a0.6623,0.6623 0 0 0 0.4799,-0.2015a0.6575,0.6575 0 0 0 0.2015,-0.48a0.667,0.667 0 0 0 -0.2015,-0.4798a0.6575,0.6575 0 0 0 -0.4799,-0.2062a0.643,0.643 0 0 0 -0.0234,0l0.0001,0.0001z"/>
 </g>
</svg>